# xmcd CD database file
#
# Track frame offsets:
#	150
#	18886
#	48692
#	62402
#	80721
#	103831
#	116170
#	151396
#	191594
#
# Disc length: 2967 seconds
#
# Revision: 0
# Processed by: cddbd v1.5.1PL0 Copyright (c) Steve Scherf et al.
# Submitted via: CDex 1.50Beta3
#
DISCID=750b9509
DTITLE=Savoy Brown - Blue Matter
DYEAR=1969
DGENRE=Blues
TTITLE0=Train To Nowhere
TTITLE1=Tolling Bells
TTITLE2=She's Got A Ring In His Nose And A Ring On Her Hand
TTITLE3=Vichsburg Blues
TTITLE4=Don't Turn Me From Your Door
TTITLE5=Grits Ain't Groceries
TTITLE6=I May Be Wrong
TTITLE7=Lousiana Blues
TTITLE8=It Hurts Me Too
EXTD=YEAR: 1969
EXTT0=
EXTT1=
EXTT2=
EXTT3=
EXTT4=
EXTT5=
EXTT6=
EXTT7=
EXTT8=
PLAYORDER=
